<?xml version="1.0" encoding="UTF-8" standalone="no"?>
<?xml-stylesheet href="../../css/wires.css" type="text/css"?>
<svg
   xmlns="http://www.w3.org/2000/svg"
   width="620"
   height="530">

  <polyline
    id="microcontroller"
    points="30,70 70,70 70,450, 30,450" />

  <g
    id="switch1"
    transform="translate(300,100)">

    <line
      x1="18"
      y1="-4"
      x2="18"
      y2="1" />
    <line
      x1="1"
      y1="1"
      x2="36"
      y2="1" />
    <circle
      cx="7"
      cy="15"
      r="5" />
    <circle
      cx="30"
      cy="15"
      r="5" />
  </g>

  <g
    id="switch2"
    transform="translate(300,150)">

    <line
      x1="18"
      y1="-4"
      x2="18"
      y2="1" />
    <line
      x1="1"
      y1="1"
      x2="36"
      y2="1" />
    <circle
      cx="7"
      cy="15"
      r="5" />
    <circle
      cx="30"
      cy="15"
      r="5" />
  </g>

  <g
    id="switch3"
    transform="translate(300,200)">

    <line
      x1="18"
      y1="-4"
      x2="18"
      y2="1" />
    <line
      x1="1"
      y1="1"
      x2="36"
      y2="1" />
    <circle
      cx="7"
      cy="15"
      r="5" />
    <circle
      cx="30"
      cy="15"
      r="5" />
  </g>

  <circle
    class="dot"
    cx="318"
    cy="295"
    r="3" />

  <circle
    class="dot"
    cx="318"
    cy="310"
    r="3" />

  <circle
    class="dot"
    cx="318"
    cy="325"
    r="3" />

  <g
    id="switchn"
    transform="translate(300,400)">

    <line
      x1="18"
      y1="-4"
      x2="18"
      y2="1" />
    <line
      x1="1"
      y1="1"
      x2="36"
      y2="1" />
    <circle
      cx="7"
      cy="15"
      r="5" />
    <circle
      cx="30"
      cy="15"
      r="5" />
  </g>

  <path
    d="M 450 100 q 20 0 20 150" />
  <path
    d="M 480 270 q -10 0 -10 -20" />
  <path
    d="M 480 270 q -10 0 -10 20" />
  <path
    d="M 450 440 q 20 0 20 -150" />

  <text
    class="wire"
    x="490"
    y="275">
    x 105/88/62
  </text>

  <g
    id="resistor"
    transform="translate(407,60)">

    <rect
      x="0"
      y="0"
      width="15"
      height="40" />
    <text
      x="2"
      y="25">
      R
    </text>
  </g>

  <g
    id="wires"
    class="wire">

    <line
      x1="60"
      y1="115"
      x2="301"
      y2="115" />
    <line
      x1="336"
      y1="115"
      x2="415"
      y2="115" />

    <line
      x1="60"
      y1="165"
      x2="301"
      y2="165" />
    <line
      x1="336"
      y1="165"
      x2="415"
      y2="165" />

    <line
      x1="60"
      y1="215"
      x2="301"
      y2="215" />
    <line
      x1="336"
      y1="215"
      x2="415"
      y2="215" />

    <line
      x1="60"
      y1="415"
      x2="301"
      y2="415" />
    <line
      x1="336"
      y1="415"
      x2="415"
      y2="415" />

    <line
      x1="415"
      y1="40"
      x2="415"
      y2="60" />
    <line
      x1="415"
      y1="100"
      x2="415"
      y2="500" />
  </g>

  <g
    id="vcc"
    transform="translate(400,30)">

    <text
      x="0"
      y="0">
      VCC
    </text>
    <circle
      cx="15"
      cy="5"
      r="5" />
  </g>

  <g
    id="gnd"
    transform="translate(400,500)">

    <polygon
      points="7,0 24,0 15,8" />
    <text
      x="0"
      y="20">
      GND
    </text>
  </g>

</svg>
